#!OML:ASF F:\VICON\USERDATA\INSTALL\rory3\rory3.ASF
:FULLY-SPECIFIED
:DEGREES
346
root 8.35848 17.9244 13.1152 227.952 84.1216 231.101
lowerback 13.1228 1.87706 3.39245
upperback 1.57072 3.1676 1.65928
thorax -5.61142 1.53614 -0.729322
lowerneck -18.8111 -5.97627 -11.501
upperneck 31.5278 -6.58221 7.35881
head 14.7447 -2.94576 3.87979
rclavicle 4.67703e-014 -1.74931e-014
rhumerus -30.986 -14.4578 -80.0766
rradius 27.8417
rwrist 7.39996
rhand -13.6605 9.20447
rfingers 7.12502
rthumb 12.4564 -20.4043
lclavicle 4.67703e-014 -1.74931e-014
lhumerus -37.0853 5.46342 81.5264
lradius 33.1123
lwrist -3.22292
lhand -18.5778 25.8464
lfingers 7.12502
lthumb 7.71272 55.6857
rfemur -3.64351 0.35519 28.8893
rtibia 24.4562
rfoot -14.165 -1.25618
rtoes 3.73436
lfemur -21.2871 -2.7014 -15.2861
ltibia 52.6036
lfoot -6.70232 -4.88691
ltoes -5.18423
347
root 8.49338 17.9187 13.1116 228.158 84.0789 231.345
lowerback 13.1792 1.92869 3.50386
upperback 1.54786 3.2521 1.6153
thorax -5.65521 1.57322 -0.855274
lowerneck -18.7666 -6.00051 -11.6592
upperneck 31.5592 -6.61119 7.49528
head 14.767 -2.95816 3.96173
rclavicle 7.88927e-016 2.61899e-014
rhumerus -30.7647 -13.6828 -80.424
rradius 28.3481
rwrist 6.52572
rhand -13.4866 9.26099
rfingers 7.12502
rthumb 12.6241 -20.3375
lclavicle 7.88927e-016 2.61899e-014
lhumerus -37.2954 5.62367 81.2585
lradius 33.0032
lwrist -2.97687
lhand -19.0684 26.0319
lfingers 7.12502
lthumb 7.23911 55.8881
rfemur -3.05265 0.61749 29.0501
rtibia 24.3445
rfoot -14.4042 -1.53849
rtoes 3.2742
lfemur -21.7446 -2.82283 -15.1868
ltibia 51.153
lfoot -7.07621 -3.85965
ltoes -5.24254
348
root 8.62737 17.9121 13.1034 228.551 84.0673 231.656
lowerback 13.1031 1.97269 3.63711
upperback 1.4963 3.32157 1.55877
thorax -5.65405 1.6022 -0.998959
lowerneck -18.6734 -5.96471 -11.5982
upperneck 31.4897 -6.54288 7.3678
head 14.6969 -2.94034 3.90814
rclavicle 5.0131e-015 1.13804e-014
rhumerus -30.4593 -13.1389 -80.7036
rradius 28.6863
rwrist 5.94641
rhand -12.5587 9.6799
rfingers 7.12502
rthumb 13.5186 -19.8613
lclavicle 5.0131e-015 1.13804e-014
lhumerus -37.5702 6.27976 80.8314
lradius 32.9216
lwrist -3.38812
lhand -19.2876 26.1108
lfingers 7.12502
lthumb 7.02749 55.9742
rfemur -2.5133 0.767309 29.1452
rtibia 24.0958
rfoot -14.6424 -1.58351
rtoes 3.21991
lfemur -22.2728 -2.75472 -15.1046
ltibia 49.5699
lfoot -7.34708 -2.81852
ltoes -4.47406
349
root 8.75789 17.8988 13.0951 229.328 84.0572 232.346
lowerback 13.0344 2.02599 3.76287
upperback 1.47513 3.40361 1.51893
thorax -5.62528 1.63909 -1.12249
lowerneck -18.6773 -5.95118 -11.4841
upperneck 31.4359 -6.51268 7.22389
head 14.6576 -2.93375 3.83078
rclavicle 1.38466e-014 6.06293e-015
rhumerus -30.0371 -12.8113 -80.9078
rradius 28.9226
rwrist 5.78485
rhand -12.8986 9.473
rfingers 7.12502
rthumb 13.191 -20.0897
lclavicle 1.38466e-014 6.06293e-015
lhumerus -37.6571 6.8443 80.4376
lradius 32.6746
lwrist -4.06349
lhand -19.4673 26.2622
lfingers 7.12502
lthumb 6.85411 56.1312
rfemur -1.98153 0.641052 29.2174
rtibia 23.7661
rfoot -14.7873 -1.37952
rtoes 3.51334
lfemur -22.7586 -2.59503 -14.9939
ltibia 47.8554
lfoot -7.44986 -1.69444
ltoes -3.15446
350
root 8.89046 17.8869 13.0886 230.32 83.9586 233.337
lowerback 13.0495 2.06739 3.92607
upperback 1.46637 3.48333 1.52019
thorax -5.63005 1.67447 -1.22689
lowerneck -18.705 -5.97323 -11.5009
upperneck 31.4565 -6.53293 7.21567
head 14.6764 -2.94491 3.82683
rclavicle -2.19781e-014 -1.53561e-014
rhumerus -29.7365 -12.5534 -80.9632
rradius 29.263
rwrist 6.37411
rhand -14.0017 9.10158
rfingers 7.12502
rthumb 12.1274 -20.5269
lclavicle -2.19781e-014 -1.53561e-014
lhumerus -37.7945 7.16553 80.1279
lradius 32.5037
lwrist -4.42553
lhand -19.7002 26.3316
lfingers 7.12502
lthumb 6.62927 56.2079
rfemur -1.33475 0.700211 29.4189
rtibia 23.4268
rfoot -14.9388 -1.46302
rtoes 3.63089
lfemur -23.0683 -2.49078 -14.8193
ltibia 45.9923
lfoot -7.36222 -0.403542
ltoes -2.4869
351
root 9.02199 17.8813 13.0823 230.82 83.8888 233.832
lowerback 13.1271 2.06962 4.03461
upperback 1.43461 3.50735 1.5228
thorax -5.69943 1.68168 -1.29338
lowerneck -18.7862 -5.98368 -11.6568
upperneck 31.554 -6.50115 7.26596
head 14.7455 -2.94192 3.88414
rclavicle -3.00569e-014 -3.90115e-015
rhumerus -29.4403 -11.9679 -81.1105
rradius 29.6357
rwrist 6.54335
rhand -14.1905 9.32881
rfingers 7.12502
rthumb 11.9454 -20.3104
lclavicle -3.00569e-014 -3.90115e-015
lhumerus -38.0371 7.46175 79.8361
lradius 32.4236
lwrist -4.54458
lhand -19.6411 26.4324
lfingers 7.12502
lthumb 6.68632 56.3069
rfemur -0.668482 1.00412 29.6025
rtibia 23.0791
rfoot -15.1791 -1.96055
rtoes 3.36671
lfemur -23.2992 -2.45893 -14.718
ltibia 43.9788
lfoot -7.19271 1.01166
ltoes -3.20192
352
root 9.15391 17.8841 13.0749 231.099 83.9875 234.049
lowerback 13.1534 2.1361 4.0094
upperback 1.38426 3.591 1.49018
thorax -5.7627 1.71988 -1.33038
lowerneck -18.7954 -5.95351 -11.7574
upperneck 31.5983 -6.41317 7.25543
head 14.7614 -2.91733 3.91568
rclavicle 1.81143e-014 1.8313e-014
rhumerus -29.1502 -10.6796 -81.6355
rradius 30.1759
rwrist 4.59234
rhand -14.7926 8.85488
rfingers 7.12502
rthumb 11.3648 -20.8172
lclavicle 1.81143e-014 1.8313e-014
lhumerus -38.2182 7.6109 79.6317
lradius 32.2146
lwrist -4.60765
lhand -19.3423 26.4122
lfingers 7.12502
lthumb 6.97473 56.2773
rfemur 0.00964017 1.25609 29.6121
rtibia 22.5983
rfoot -15.4677 -2.7444
rtoes 1.57337
lfemur -23.5005 -2.50283 -14.7768
ltibia 41.8932
lfoot -6.93577 2.56652
ltoes -5.01634
353
root 9.28952 17.8875 13.0642 231.178 84.1586 234.041
lowerback 13.0943 2.2373 3.90175
upperback 1.33306 3.70287 1.45087
thorax -5.78273 1.77453 -1.32909
lowerneck -18.7247 -5.94783 -11.9262
upperneck 31.5684 -6.36763 7.3061
head 14.7368 -2.91213 3.97466
rclavicle 1.05356e-014 7.40473e-015
rhumerus -28.898 -10.1947 -81.6867
rradius 30.5403
rwrist 4.65959
rhand -14.2926 8.81785
rfingers 7.12502
rthumb 11.847 -20.827
lclavicle 1.05356e-014 7.40473e-015
lhumerus -38.3529 7.91688 79.4738
lradius 31.906
lwrist -4.70378
lhand -19.4538 26.2567
lfingers 7.12502
lthumb 6.86706 56.1253
rfemur 0.722688 1.32387 29.4681
rtibia 22.0257
rfoot -15.7616 -3.03858
rtoes 0.699238
lfemur -23.6316 -2.49328 -14.948
ltibia 39.7437
lfoot -6.50245 3.94359
ltoes -6.45696
354
root 9.42576 17.8911 13.051 231.69 84.137 234.49
lowerback 13.0147 2.29317 3.99901
upperback 1.324 3.78678 1.45422
thorax -5.7382 1.81428 -1.39036
lowerneck -18.7725 -5.98202 -12.0765
upperneck 31.5732 -6.3849 7.37853
head 14.7629 -2.92749 4.02775
rclavicle -1.70489e-014 -1.44119e-015
rhumerus -28.5867 -9.61282 -81.7894
rradius 30.8987
rwrist 4.38021
rhand -14.14 8.80906
rfingers 7.12502
rthumb 11.9941 -20.8273
lclavicle -1.70489e-014 -1.44119e-015
lhumerus -38.3951 8.33887 79.2814
lradius 31.5485
lwrist -5.00779
lhand -19.8177 26.0791
lfingers 7.12502
lthumb 6.51582 55.9588
rfemur 1.40615 1.27141 29.4988
rtibia 21.5136
rfoot -15.8627 -2.837
rtoes 1.37826
lfemur -23.7336 -2.55952 -14.7816
ltibia 37.5692
lfoot -6.24424 4.70235
ltoes -0.263638
355
root 9.56565 17.8871 13.0367 231.915 84.0797 234.572
lowerback 12.8186 2.34214 4.18719
upperback 1.28889 3.86291 1.39414
thorax -5.64609 1.84763 -1.56177
lowerneck -18.772 -5.99802 -12.1316
upperneck 31.5874 -6.40652 7.43412
head 14.7773 -2.93516 4.05763
rclavicle -2.3e-014 -2.13942e-014
rhumerus -28.2989 -9.12282 -81.9533
rradius 31.3073
rwrist 3.87921
rhand -14.1002 8.67551
rfingers 7.12502
rthumb 12.0325 -20.9586
lclavicle -2.3e-014 -2.13942e-014
lhumerus -38.4855 8.53208 79.0147
lradius 31.2734
lwrist -5.48824
lhand -19.5208 25.9743
lfingers 7.12502
lthumb 6.80246 55.8451
rfemur 2.08016 1.46288 29.5954
rtibia 20.922
rfoot -15.954 -3.05454
rtoes 1.23863
lfemur -23.9539 -2.6122 -14.6249
ltibia 35.3882
lfoot -6.01584 5.47111
ltoes 3.49853
356
root 9.7031 17.8643 13.025 232.408 84.0572 234.938
lowerback 12.7318 2.35991 4.28778
upperback 1.22011 3.89414 1.36488
thorax -5.66027 1.85802 -1.65106
lowerneck -18.814 -5.95054 -12.0777
upperneck 31.6142 -6.3077 7.31454
head 14.7784 -2.90216 4.01691
rclavicle 1.09456e-014 -1.89342e-014
rhumerus -28.0457 -8.59403 -82.1443
rradius 31.686
rwrist 3.67971
rhand -14.2328 8.64565
rfingers 7.12502
rthumb 11.9047 -20.9959
lclavicle 1.09456e-014 -1.89342e-014
lhumerus -38.7397 8.70882 78.7953
lradius 31.1394
lwrist -5.54852
lhand -19.5281 26.1765
lfingers 7.12502
lthumb 6.79534 56.0475
rfemur 2.75741 1.67221 29.7111
rtibia 20.346
rfoot -16.0411 -3.36876
rtoes 0.368172
lfemur -24.1437 -2.2151 -14.7744
ltibia 33.2113
lfoot -5.19924 6.4982
ltoes -4.02639
